<svg width="48" height="48" viewBox="0 0 48 48" fill="none" xmlns="http://www.w3.org/2000/svg">
<path d="M16 10C16 8.89543 16.8954 8 18 8C19.1046 8 20 8.89543 20 10V12C20 13.1046 19.1046 14 18 14C16.8954 14 16 13.1046 16 12V10Z" fill="#FFD600"/>
<path d="M4 26C2.89543 26 2 25.1046 2 24C2 22.8954 2.89543 22 4 22H6C7.10457 22 8 22.8954 8 24C8 25.1046 7.10457 26 6 26H4Z" fill="#FFD600"/>
<path d="M6.68631 15.5148C5.90526 14.7338 5.90526 13.4674 6.68631 12.6864C7.46736 11.9053 8.73369 11.9053 9.51474 12.6864L10.9289 14.1006C11.71 14.8816 11.71 16.148 10.9289 16.929C10.1479 17.7101 8.88157 17.7101 8.10052 16.929L6.68631 15.5148Z" fill="#FFD600"/>
<path d="M10.0409 24.8143C10.0139 24.5465 10 24.2749 10 24C10 19.5817 13.5817 16 18 16C19.705 16 21.2853 16.5334 22.5834 17.4423C20.5171 19.138 18.8395 21.3657 17.7017 23.9087C17.6666 23.9871 17.558 24.1303 17.2901 24.2395C17.0181 24.3504 16.7094 24.3687 16.4689 24.3076C15.6771 24.1064 14.8495 24 14 24C12.5936 24 11.255 24.2903 10.0409 24.8143Z" fill="#FFD600"/>
<path opacity="0.5" d="M46 32C46 23.1634 39.732 16 32 16C26.5601 16 21.8449 19.5459 19.5273 24.7255C18.958 25.9978 17.3272 26.5893 15.9763 26.246C15.3442 26.0854 14.6821 26 14 26C9.58172 26 6 29.5817 6 34C6.00001 35.6852 8.18293 36.1089 10.0142 36.4644C10.3176 36.5233 10.6114 36.5803 10.8839 36.6409L11.3462 36.7436C20.9977 38.8884 31.0023 38.8884 40.6538 36.7436L41.1161 36.6409C41.3887 36.5803 41.6824 36.5233 41.9859 36.4644C43.8171 36.1089 46 35.6853 46 34L46 32Z" fill="#B5C7FF"/>
</svg>
