<svg width="18" height="20" viewBox="0 0 18 20" fill="none" xmlns="http://www.w3.org/2000/svg">
<path fill-rule="evenodd" clip-rule="evenodd" d="M15 7.5C15 11.6421 11.6422 15 7.5 15C3.35785 15 0 11.6421 0 7.5C0 3.35786 3.35785 0 7.5 0C11.6422 0 15 3.35786 15 7.5ZM13 7.5C13 10.5376 10.5375 13 7.5 13C4.46246 13 2 10.5376 2 7.5C2 4.46243 4.46246 2 7.5 2C10.5375 2 13 4.46243 13 7.5Z" fill="#08153E"/>
<path d="M14.5 14.3787C14.1095 13.9882 13.4763 13.9882 13.0858 14.3787L12.3787 15.0858C11.9882 15.4763 11.9882 16.1095 12.3787 16.5L14.8536 18.9749C15.4393 19.5607 16.3891 19.5607 16.9749 18.9749C17.5607 18.3891 17.5607 17.4393 16.9749 16.8535L14.5 14.3787Z" fill="#08153E"/>
</svg>
