<svg width="14" height="10" viewBox="0 0 14 10" fill="none" xmlns="http://www.w3.org/2000/svg">
<path d="M0 3C0 1.34315 1.34315 0 3 0H11C12.6569 0 14 1.34315 14 3V7C14 8.65685 12.6569 10 11 10H3C1.34315 10 0 8.65685 0 7V3Z" fill="#ED1C24"/>
<path d="M0 2.5H14V7.5H0V2.5Z" fill="white"/>
<path d="M6.93635 2.5C6.83617 2.726 6.64752 2.88396 6.46722 3.03344C6.43756 3.06118 6.36381 3.11494 6.41733 3.15584C6.46315 3.10096 6.58897 3.17364 6.51585 3.23266C6.45035 3.29836 6.36017 3.3224 6.28744 3.3766C6.22304 3.41408 6.15773 3.45324 6.10666 3.51062C6.10318 3.60026 6.21048 3.55064 6.25401 3.588C6.31072 3.65294 6.22997 3.76242 6.15556 3.7374C6.06042 3.7405 5.99469 3.8302 5.95872 3.9158C5.8843 4.0391 5.74325 4.0756 5.63099 4.14578C5.56674 4.1859 5.50441 4.2303 5.44461 4.27712C5.36749 4.3336 5.43458 4.44544 5.51662 4.418C5.60518 4.40854 5.68487 4.33398 5.77656 4.35546C5.85972 4.38676 5.88305 4.5032 5.85471 4.5845C5.83373 4.64958 5.78285 4.69544 5.74212 4.74628C5.67594 4.81808 5.58942 4.8647 5.4982 4.88694C5.41004 4.91864 5.3308 4.97652 5.27297 5.05464C5.20584 5.12704 5.13898 5.20062 5.06185 5.26098C5.03747 5.32762 5.10624 5.38438 5.16358 5.38258C5.28439 5.37444 5.36813 5.2685 5.47102 5.21406C5.55642 5.17294 5.6569 5.27154 5.63603 5.36686C5.62941 5.45958 5.54837 5.50664 5.47634 5.53516C5.26455 5.64924 5.08066 5.81466 4.91739 5.99716C4.8836 6.07096 4.79077 6.04926 4.7408 6.1007C4.70822 6.1658 4.78995 6.20014 4.83871 6.19344C5.04824 6.16644 5.24377 6.07156 5.42898 5.96714C5.49786 5.93186 5.56254 5.88542 5.63417 5.8573C5.70142 5.8395 5.79522 5.87084 5.80726 5.95286C5.80717 6.03946 5.72711 6.0874 5.6637 6.12124C5.46816 6.2313 5.25357 6.29216 5.04456 6.36492C4.96633 6.34148 4.90738 6.49062 4.99323 6.51744C5.08397 6.5508 5.18045 6.52404 5.2733 6.51968C5.56036 6.47256 5.81142 6.30614 6.07978 6.19854C6.19133 6.15958 6.323 6.21394 6.37807 6.32594C6.43338 6.42578 6.42832 6.55706 6.36997 6.65406C6.27776 6.86542 6.13757 7.0597 5.94939 7.18122C5.83125 7.24388 5.69336 7.26786 5.59211 7.3638C5.49848 7.39686 5.63906 7.53242 5.65939 7.42484C5.71565 7.34262 5.81488 7.31804 5.90491 7.31464C6.04019 7.29886 6.18384 7.27212 6.28896 7.17178C6.3832 7.09338 6.47607 6.98522 6.60403 6.98352C6.67474 6.99252 6.74468 7.0534 6.81651 7.01624C6.87935 6.98544 6.97794 7.00348 6.99435 7.08628C7.02435 7.18312 7.11751 7.22718 7.1914 7.279C7.21814 7.31924 7.307 7.423 7.32748 7.33152C7.31096 7.26626 7.33457 7.16642 7.41446 7.18822C7.48426 7.19156 7.55075 7.21914 7.62041 7.22366C7.71317 7.24424 7.79052 7.31226 7.8432 7.39442C7.87941 7.44802 7.95878 7.54014 8.01775 7.46906C8.05434 7.39554 7.9845 7.33422 7.92763 7.30796C7.84471 7.25292 7.77381 7.1796 7.70133 7.11016C7.59448 7.00326 7.50218 6.86726 7.48523 6.70752C7.46223 6.54826 7.47433 6.38582 7.49372 6.22698C7.51814 6.12472 7.6402 6.0689 7.72552 6.12324C7.84561 6.18194 7.96485 6.26594 8.10252 6.25684C8.30145 6.26142 8.50586 6.2206 8.70026 6.28238C8.88945 6.34622 9.02469 6.51726 9.20898 6.59128C9.25024 6.61814 9.30301 6.59258 9.31813 6.54538C9.33638 6.50296 9.3235 6.44868 9.28535 6.4245C9.07178 6.19352 8.77989 6.0813 8.5328 5.90082C8.455 5.87966 8.44083 5.74556 8.51275 5.70682C8.6073 5.63322 8.74108 5.66748 8.82497 5.7434C8.89581 5.78786 8.97561 5.82116 9.05873 5.82124C9.14387 5.79268 9.1026 5.6607 9.02637 5.65076C8.88825 5.56722 8.78934 5.4301 8.66967 5.32144C8.60079 5.25894 8.52537 5.19564 8.43279 5.18352C8.38218 5.17366 8.3304 5.1715 8.27912 5.17518C8.23104 5.11918 8.29512 5.03344 8.3573 5.04046C8.42112 5.04506 8.48457 5.05014 8.54829 5.04062C8.61951 5.03502 8.69066 5.02714 8.76212 5.02662C8.81982 5.0687 8.93511 4.996 8.88304 4.92342C8.82617 4.87002 8.7439 4.87466 8.67594 4.84726C8.55661 4.80546 8.43508 4.77123 8.31199 4.74476C8.2259 4.73926 8.23652 4.61788 8.31218 4.60448C8.36168 4.5847 8.40473 4.62546 8.45225 4.63178C8.53342 4.65046 8.61723 4.65022 8.69836 4.66918C8.76714 4.63278 8.71396 4.52512 8.65174 4.51884C8.50491 4.46258 8.37804 4.36106 8.254 4.2623C8.11704 4.15194 7.99279 4.02432 7.85416 3.91652C7.80387 3.88312 7.72142 3.87352 7.70818 3.7995C7.70352 3.7314 7.77831 3.7004 7.83135 3.7163C7.90657 3.7401 7.97668 3.78156 8.05337 3.80192C8.11353 3.81288 8.17554 3.83194 8.23354 3.82382C8.30714 3.77428 8.20197 3.74262 8.16391 3.72542C8.06576 3.6687 7.97855 3.59314 7.89026 3.5211C7.81559 3.45284 7.95354 3.4227 8.00099 3.44896C8.08032 3.48452 8.08936 3.36066 8.03007 3.3295C7.9602 3.29766 7.90011 3.24482 7.83676 3.19874C7.72228 3.11144 7.59262 3.04232 7.45189 3.02312C7.29412 3.00612 7.14688 2.90892 7.06316 2.76436C7.01126 2.68198 6.97318 2.59088 6.93633 2.5H6.93635ZM6.4182 3.44836C6.49952 3.45094 6.48703 3.60796 6.40697 3.59748C6.32922 3.59212 6.33398 3.43148 6.4182 3.44836ZM7.18522 3.53292C7.26436 3.51774 7.28111 3.67246 7.20205 3.67972C7.11968 3.69552 7.08916 3.52312 7.18522 3.53292ZM6.96056 3.55308C7.04079 3.56998 7.02651 3.71972 6.94556 3.72102C6.88633 3.73516 6.82249 3.77846 6.76257 3.74602C6.71385 3.69078 6.78428 3.60912 6.83867 3.59118C6.88039 3.58218 6.91877 3.56186 6.96056 3.55308ZM7.47761 3.55372C7.55489 3.58394 7.52764 3.73016 7.4461 3.7283C7.36901 3.73936 7.33309 3.60154 7.405 3.56886C7.42828 3.56002 7.45265 3.55256 7.47761 3.55372V3.55372ZM6.60541 3.7196C6.66225 3.77756 6.62869 3.8894 6.5586 3.91614C6.50808 3.94626 6.4392 4.01748 6.38417 3.95888C6.35431 3.88728 6.42925 3.83338 6.47335 3.79366C6.51268 3.76088 6.55609 3.73114 6.60541 3.7196ZM7.2546 4.04286C7.33599 4.08404 7.29468 4.24118 7.20536 4.23142C7.132 4.2115 7.14157 4.07668 7.21546 4.06594C7.22944 4.0602 7.24224 4.05178 7.2546 4.04286ZM6.99637 4.05846C7.07247 4.09666 7.01436 4.23276 6.9377 4.21314C6.8582 4.20314 6.85967 4.0534 6.94733 4.06694C6.96385 4.06604 6.98091 4.0656 6.99637 4.05848V4.05846ZM7.55304 4.13652C7.63647 4.1088 7.73691 4.20088 7.70984 4.29426C7.67266 4.36666 7.58071 4.37582 7.51485 4.34876C7.43923 4.34476 7.38837 4.22296 7.45573 4.17136C7.48362 4.14882 7.51875 4.13956 7.55304 4.13652ZM6.32074 4.15994C6.38972 4.11974 6.46297 4.24058 6.4043 4.2939C6.36545 4.3551 6.26566 4.3801 6.22166 4.31204C6.18511 4.24556 6.24421 4.13386 6.32074 4.15994V4.15994ZM6.00248 4.21718C6.08073 4.22866 6.13173 4.3048 6.16064 4.37732C6.1677 4.46568 6.04601 4.51416 5.99292 4.44986C5.93323 4.40974 5.88098 4.32722 5.91228 4.25066C5.93155 4.22024 5.96996 4.20768 6.00248 4.21718ZM7.90653 4.53656C7.99147 4.51256 8.05312 4.65798 7.98019 4.7106C7.91352 4.77548 7.78389 4.68952 7.81865 4.59694C7.83594 4.56262 7.87051 4.5398 7.90653 4.53654V4.53656ZM6.82566 4.70242C6.89687 4.71214 6.87382 4.84436 6.80796 4.83992C6.73729 4.8259 6.75348 4.69496 6.82566 4.70242ZM6.46446 4.77266C6.52253 4.72864 6.59744 4.8361 6.54913 4.88618C6.49123 4.92988 6.41611 4.82412 6.46446 4.77266ZM7.03876 4.78566C7.10607 4.8295 7.14604 4.91122 7.15442 4.99366C7.12214 5.07072 6.99756 5.05214 6.9835 4.9701C6.95886 4.90522 6.98158 4.82176 7.03876 4.78568V4.78566ZM7.23918 4.91316C7.32594 4.88982 7.29481 5.0841 7.22238 5.0167C7.1983 4.9861 7.21118 4.9357 7.23918 4.91316ZM5.98045 5.04846C6.03791 5.03044 6.12165 5.04938 6.13749 5.12002C6.1442 5.18642 6.07606 5.22094 6.02613 5.2374C5.94611 5.26384 5.86784 5.30728 5.78178 5.30144C5.71731 5.26194 5.69414 5.18112 5.67115 5.11062C5.7334 5.04808 5.82505 5.06642 5.90224 5.05078C5.92829 5.0494 5.95437 5.04862 5.98045 5.04846V5.04846ZM7.93298 5.35286C8.00625 5.31438 8.08504 5.439 8.02371 5.4972C7.94699 5.59184 7.79924 5.6094 7.70749 5.52992C7.69646 5.44618 7.77452 5.38536 7.84389 5.37332C7.87307 5.36452 7.90205 5.35132 7.93297 5.35286H7.93298ZM8.34483 5.44848C8.42808 5.43314 8.49368 5.5604 8.43422 5.62626C8.37794 5.71716 8.24375 5.741 8.16703 5.66648C8.13712 5.59112 8.19779 5.51258 8.26238 5.4884C8.29013 5.47574 8.31642 5.45952 8.34483 5.44848V5.44848ZM6.27395 5.58378C6.35104 5.57562 6.42168 5.65758 6.41156 5.73904C6.46737 5.79788 6.36853 5.90752 6.31292 5.84658C6.26392 5.78298 6.26418 5.69666 6.2452 5.62052C6.24436 5.6036 6.25603 5.58172 6.27395 5.58378V5.58378ZM6.86587 5.63126C6.94557 5.59434 7.04871 5.69652 7.00531 5.78302C6.97432 5.85346 6.85344 5.82984 6.85747 5.74824C6.85724 5.7092 6.85429 5.66918 6.86587 5.63126V5.63126ZM6.57788 5.68654C6.65781 5.66692 6.73113 5.77794 6.68672 5.852C6.60704 5.8596 6.56567 5.75826 6.5779 5.68654H6.57788Z" fill="#00A651"/>
</svg>
